<svg width="24" height="24" viewBox="0 0 24 24" fill="none" xmlns="http://www.w3.org/2000/svg">
<path d="M12.2005 11.0183H20.7529C20.797 11.4045 20.8194 11.8 20.8201 12.205C20.8201 14.9452 19.8379 17.2525 18.136 18.82C16.6476 20.1942 14.61 21 12.1804 21C10.9984 21.0005 9.82785 20.7681 8.73568 20.316C7.64352 19.864 6.65115 19.2011 5.81528 18.3653C4.97942 17.5296 4.31644 16.5373 3.86425 15.4452C3.41206 14.353 3.17952 13.1825 3.17992 12.0005C3.17939 10.8184 3.41184 9.64776 3.86397 8.55554C4.3161 7.46331 4.97905 6.47089 5.81493 5.63501C6.65081 4.79913 7.64322 4.13618 8.73545 3.68405C9.82768 3.23192 10.9983 2.99947 12.1804 3C14.6059 3 16.6436 3.89203 18.2021 5.34434L16.7368 6.80868C15.5762 5.68712 14.0076 5.00457 12.2005 5.00457C10.3397 5.00457 8.55517 5.74375 7.23942 7.0595C5.92366 8.37525 5.18448 10.1598 5.18448 12.0205C5.18448 13.8813 5.92366 15.6658 7.23942 16.9816C8.55517 18.2973 10.3397 19.0365 12.2005 19.0365C15.7355 19.0365 18.3585 16.4226 18.7925 13.0228H12.2005V11.0183Z" fill="#050505"/>
</svg>
