<svg width="24" height="24" viewBox="0 0 24 24" fill="none" xmlns="http://www.w3.org/2000/svg">
<path d="M17.3311 20.7334C16.2972 21.7355 15.1685 21.5773 14.0819 21.1026C12.9321 20.6173 11.8771 20.5962 10.664 21.1026C9.14491 21.7566 8.34317 21.5667 7.43595 20.7334C2.28795 15.4271 3.04749 7.34646 8.89173 7.05108C10.3159 7.12493 11.3075 7.83172 12.1409 7.89502C13.3857 7.64184 14.5777 6.91395 15.9069 7.00889C17.4998 7.13548 18.7025 7.76843 19.4936 8.90774C16.2023 10.8804 16.9829 15.2161 20 16.4293C19.3987 18.0117 18.6181 19.5835 17.3205 20.7439L17.3311 20.7334ZM12.0354 6.98779C11.8771 4.63533 13.7865 2.69428 15.9808 2.50439C16.2867 5.22608 13.5123 7.25152 12.0354 6.98779Z" fill="#050505"/>
</svg>
