<svg width="18" height="8" viewBox="0 0 18 8" fill="none" xmlns="http://www.w3.org/2000/svg">
<path d="M1.08888 1.40822C1.04842 1.35503 1.01903 1.29428 1.00245 1.22954C0.985865 1.16481 0.982427 1.0974 0.992338 1.03131C1.00225 0.965227 1.02531 0.901797 1.06015 0.844773C1.09499 0.787749 1.14091 0.738288 1.1952 0.699313C1.24948 0.660338 1.31103 0.632641 1.3762 0.617857C1.44137 0.603074 1.50884 0.601504 1.57463 0.613241C1.64042 0.624979 1.70318 0.649785 1.75922 0.686194C1.81526 0.722602 1.86343 0.769875 1.90088 0.825217C2.24888 1.30922 2.77088 1.75922 3.43688 2.14322C4.80989 2.93522 6.68689 3.39422 8.69889 3.39422C10.7109 3.39422 12.5889 2.93522 13.9619 2.14322C14.6269 1.75922 15.1489 1.30922 15.4969 0.825217C15.5742 0.717407 15.6912 0.644723 15.8221 0.623157C15.953 0.60159 16.0871 0.632907 16.1949 0.710217C16.3027 0.787528 16.3754 0.9045 16.3969 1.0354C16.4185 1.1663 16.3872 1.30041 16.3099 1.40822C15.8729 2.01622 15.2429 2.55822 14.4619 3.00922C12.9289 3.89322 10.8789 4.39422 8.69889 4.39422C6.51889 4.39422 4.46888 3.89422 2.93688 3.00922C2.15488 2.55822 1.52488 2.01622 1.08888 1.40922" fill="#DCE0E0"/>
<path d="M9.49488 4.39422C9.49488 4.26161 9.44221 4.13443 9.34844 4.04066C9.25467 3.94689 9.12749 3.89422 8.99488 3.89422C8.86228 3.89422 8.7351 3.94689 8.64133 4.04066C8.54756 4.13443 8.49488 4.26161 8.49488 4.39422V6.89422C8.49488 7.02682 8.54756 7.154 8.64133 7.24777C8.7351 7.34154 8.86228 7.39422 8.99488 7.39422C9.12749 7.39422 9.25467 7.34154 9.34844 7.24777C9.44221 7.154 9.49488 7.02682 9.49488 6.89422V4.39422ZM5.00489 3.79622C5.01577 3.73 5.03988 3.66665 5.07577 3.60994C5.11166 3.55324 5.1586 3.50434 5.21379 3.46616C5.26898 3.42797 5.33129 3.40129 5.39701 3.38771C5.46273 3.37412 5.53051 3.37389 5.59632 3.38706C5.66212 3.40022 5.72461 3.42649 5.78004 3.46431C5.83548 3.50213 5.88274 3.55073 5.91899 3.6072C5.95525 3.66367 5.97977 3.72686 5.99109 3.79301C6.00241 3.85915 6.0003 3.9269 5.98488 3.99222L5.48488 6.49222C5.4551 6.61838 5.37749 6.72804 5.26841 6.79808C5.15933 6.86812 5.02731 6.89306 4.9002 6.86764C4.77309 6.84221 4.66082 6.76842 4.58707 6.66181C4.51332 6.55521 4.48385 6.42413 4.50489 6.29622L5.00489 3.79622ZM12.9849 3.79622C12.9551 3.67006 12.8775 3.56039 12.7684 3.49035C12.6593 3.42031 12.5273 3.39537 12.4002 3.4208C12.2731 3.44622 12.1608 3.52001 12.0871 3.62662C12.0133 3.73322 11.9839 3.8643 12.0049 3.99222L12.5049 6.49222C12.5347 6.61838 12.6123 6.72804 12.7214 6.79808C12.8304 6.86812 12.9625 6.89306 13.0896 6.86764C13.2167 6.84221 13.329 6.76842 13.4027 6.66181C13.4765 6.55521 13.5059 6.42413 13.4849 6.29622L12.9849 3.79622ZM15.3489 2.04022C15.255 1.94633 15.1277 1.89359 14.9949 1.89359C14.8621 1.89359 14.7348 1.94633 14.6409 2.04022C14.547 2.1341 14.4943 2.26144 14.4943 2.39422C14.4943 2.52699 14.547 2.65433 14.6409 2.74822L16.6409 4.74822C16.7348 4.8421 16.8621 4.89485 16.9949 4.89485C17.1277 4.89485 17.255 4.8421 17.3489 4.74822C17.4428 4.65433 17.4955 4.52699 17.4955 4.39422C17.4955 4.26144 17.4428 4.1341 17.3489 4.04022L15.3489 2.04022ZM2.44288 2.05822C2.4864 2.00745 2.53966 1.96594 2.59951 1.93612C2.65935 1.9063 2.72457 1.88879 2.7913 1.88462C2.85804 1.88045 2.92493 1.8897 2.98802 1.91184C3.05111 1.93398 3.10913 1.96854 3.15862 2.01349C3.20812 2.05844 3.2481 2.11286 3.2762 2.17354C3.3043 2.23421 3.31994 2.2999 3.3222 2.36673C3.32446 2.43355 3.3133 2.50015 3.28937 2.56259C3.26544 2.62502 3.22923 2.68202 3.18289 2.73022L1.36488 4.73022C1.27468 4.82402 1.15146 4.87895 1.0214 4.88336C0.891342 4.88776 0.764689 4.84128 0.66835 4.75379C0.57201 4.66631 0.513576 4.54471 0.50546 4.41483C0.497344 4.28494 0.540186 4.15702 0.624885 4.05822L2.44288 2.05822Z" fill="#DCE0E0"/>
</svg>
